<?xml version="1.0" encoding="UTF-8" standalone="no"?>
<!-- Created with Inkscape (http://www.inkscape.org/) -->

<svg
   xmlns:dc="http://purl.org/dc/elements/1.1/"
   xmlns:cc="http://creativecommons.org/ns#"
   xmlns:rdf="http://www.w3.org/1999/02/22-rdf-syntax-ns#"
   xmlns:svg="http://www.w3.org/2000/svg"
   xmlns="http://www.w3.org/2000/svg"
   xmlns:sodipodi="http://sodipodi.sourceforge.net/DTD/sodipodi-0.dtd"
   xmlns:inkscape="http://www.inkscape.org/namespaces/inkscape"
   width="367.89822"
   height="381.99164"
   id="svg2"
   version="1.1"
   inkscape:version="0.48.0 r9654"
   sodipodi:docname="skyline_ldl.svg">
  <defs
     id="defs4">
    <marker
       inkscape:stockid="Arrow2Mstart"
       orient="auto"
       refY="0"
       refX="0"
       id="Arrow2Mstart"
       style="overflow:visible">
      <path
         id="path4037"
         style="font-size:12px;fill-rule:evenodd;stroke-width:0.625;stroke-linejoin:round"
         d="M 8.7185878,4.0337352 -2.2072895,0.01601326 8.7185884,-4.0017078 c -1.7454984,2.3720609 -1.7354408,5.6174519 -6e-7,8.035443 z"
         transform="scale(0.6,0.6)"
         inkscape:connector-curvature="0" />
    </marker>
    <marker
       inkscape:stockid="Arrow1Mstart"
       orient="auto"
       refY="0"
       refX="0"
       id="Arrow1Mstart"
       style="overflow:visible">
      <path
         id="path4019"
         d="M 0,0 5,-5 -12.5,0 5,5 0,0 z"
         style="fill-rule:evenodd;stroke:#000000;stroke-width:1pt;marker-start:none"
         transform="matrix(0.4,0,0,0.4,4,0)"
         inkscape:connector-curvature="0" />
    </marker>
    <marker
       inkscape:stockid="Arrow1Mstart"
       orient="auto"
       refY="0"
       refX="0"
       id="Arrow1Mstart-3"
       style="overflow:visible">
      <path
         id="path4019-9"
         d="M 0,0 5,-5 -12.5,0 5,5 0,0 z"
         style="fill-rule:evenodd;stroke:#000000;stroke-width:1pt;marker-start:none"
         transform="matrix(0.4,0,0,0.4,4,0)"
         inkscape:connector-curvature="0" />
    </marker>
    <marker
       inkscape:stockid="Arrow1Mstart"
       orient="auto"
       refY="0"
       refX="0"
       id="Arrow1Mstart-33"
       style="overflow:visible">
      <path
         id="path4019-4"
         d="M 0,0 5,-5 -12.5,0 5,5 0,0 z"
         style="fill-rule:evenodd;stroke:#000000;stroke-width:1pt;marker-start:none"
         transform="matrix(0.4,0,0,0.4,4,0)"
         inkscape:connector-curvature="0" />
    </marker>
    <marker
       inkscape:stockid="Arrow1Mstart"
       orient="auto"
       refY="0"
       refX="0"
       id="Arrow1Mstart-8"
       style="overflow:visible">
      <path
         id="path4019-6"
         d="M 0,0 5,-5 -12.5,0 5,5 0,0 z"
         style="fill-rule:evenodd;stroke:#000000;stroke-width:1pt;marker-start:none"
         transform="matrix(0.4,0,0,0.4,4,0)"
         inkscape:connector-curvature="0" />
    </marker>
  </defs>
  <sodipodi:namedview
     id="base"
     pagecolor="#ffffff"
     bordercolor="#666666"
     borderopacity="1.0"
     inkscape:pageopacity="0.0"
     inkscape:pageshadow="2"
     inkscape:zoom="3.1598834"
     inkscape:cx="209.7551"
     inkscape:cy="172.27923"
     inkscape:document-units="px"
     inkscape:current-layer="layer1"
     showgrid="false"
     inkscape:window-width="1259"
     inkscape:window-height="927"
     inkscape:window-x="628"
     inkscape:window-y="36"
     inkscape:window-maximized="0"
     showguides="true"
     inkscape:guide-bbox="true"
     fit-margin-top="0"
     fit-margin-left="0"
     fit-margin-right="0"
     fit-margin-bottom="0" />
  <metadata
     id="metadata7">
    <rdf:RDF>
      <cc:Work
         rdf:about="">
        <dc:format>image/svg+xml</dc:format>
        <dc:type
           rdf:resource="http://purl.org/dc/dcmitype/StillImage" />
        <dc:title></dc:title>
      </cc:Work>
    </rdf:RDF>
  </metadata>
  <g
     inkscape:label="レイヤー 1"
     inkscape:groupmode="layer"
     id="layer1"
     transform="translate(-31.638748,-52.825203)">
    <text
       xml:space="preserve"
       style="font-size:40px;font-style:normal;font-weight:normal;line-height:125%;letter-spacing:0px;word-spacing:0px;fill:#000000;fill-opacity:1;stroke:none;font-family:Sans"
       x="282.17838"
       y="116.17529"
       id="text3795"
       sodipodi:linespacing="125%"><tspan
         sodipodi:role="line"
         id="tspan3797"
         x="282.17838"
         y="116.17529"
         style="font-family:Palatino;-inkscape-font-specification:Palatino">Sym.</tspan></text>
    <text
       xml:space="preserve"
       style="font-size:40px;font-style:normal;font-weight:normal;line-height:125%;letter-spacing:0px;word-spacing:0px;fill:#000000;fill-opacity:1;stroke:none;font-family:Sans"
       x="167.86505"
       y="427.37683"
       id="text3795-8-4"
       sodipodi:linespacing="125%"><tspan
         sodipodi:role="line"
         id="tspan3797-7-5"
         x="167.86505"
         y="427.37683"
         style="font-size:40px;font-family:Courier;-inkscape-font-specification:Courier">j</tspan></text>
    <path
       style="fill:none;stroke:#000000;stroke-width:1px;stroke-linecap:butt;stroke-linejoin:miter;stroke-opacity:1"
       d="M 63.214323,55.583079 396.33007,388.34168"
       id="path3793"
       inkscape:connector-curvature="0"
       sodipodi:nodetypes="cc" />
    <rect
       style="fill:none;stroke:#808080;stroke-width:2;stroke-miterlimit:4;stroke-opacity:1;stroke-dasharray:none"
       id="rect3801"
       width="16.428572"
       height="46.437244"
       x="93.024658"
       y="64.134476"
       transform="matrix(0,1,1,0,0,0)" />
    <rect
       style="fill:none;stroke:#808080;stroke-width:2;stroke-miterlimit:4;stroke-opacity:1;stroke-dasharray:none"
       id="rect3801-9"
       width="16.428572"
       height="85.144257"
       x="166.73895"
       y="98.570328"
       transform="matrix(0,1,1,0,0,0)" />
    <rect
       style="fill:none;stroke:#808080;stroke-width:2;stroke-miterlimit:4;stroke-opacity:1;stroke-dasharray:none"
       id="rect3801-3"
       width="16.428572"
       height="120.12543"
       x="203.5961"
       y="100.01771"
       transform="matrix(0,1,1,0,0,0)" />
    <rect
       style="fill:none;stroke:#808080;stroke-width:2;stroke-miterlimit:4;stroke-opacity:1;stroke-dasharray:none"
       id="rect3801-1"
       width="16.428572"
       height="65.676491"
       x="129.88181"
       y="81.323799"
       transform="matrix(0,1,1,0,0,0)" />
    <rect
       style="fill:none;stroke:#808080;stroke-width:2;stroke-miterlimit:4;stroke-opacity:1;stroke-dasharray:none"
       id="rect3801-1-3"
       width="16.428572"
       height="10.198979"
       x="56.167507"
       y="63.658451"
       transform="matrix(0,1,1,0,0,0)" />
    <rect
       style="fill:none;stroke:#808080;stroke-width:2;stroke-miterlimit:4;stroke-opacity:1;stroke-dasharray:none"
       id="rect3801-1-5"
       width="16.428572"
       height="112.85714"
       x="185.16751"
       y="88.714577"
       transform="matrix(0,1,1,0,0,0)" />
    <rect
       style="fill:none;stroke:#808080;stroke-width:2;stroke-miterlimit:4;stroke-opacity:1;stroke-dasharray:none"
       id="rect3801-1-1"
       width="16.428572"
       height="55.999996"
       x="111.45322"
       y="73.857437"
       transform="matrix(0,1,1,0,0,0)" />
    <rect
       style="fill:none;stroke:#808080;stroke-width:2;stroke-miterlimit:4;stroke-opacity:1;stroke-dasharray:none"
       id="rect3801-1-7"
       width="16.428572"
       height="26.582901"
       x="74.596077"
       y="64.988808"
       transform="matrix(0,1,1,0,0,0)" />
    <rect
       style="fill:none;stroke:#808080;stroke-width:2;stroke-miterlimit:4;stroke-opacity:1;stroke-dasharray:none"
       id="rect3801-1-8"
       width="16.428572"
       height="101"
       x="148.31036"
       y="64.143143"
       transform="matrix(0,1,1,0,0,0)" />
    <rect
       style="fill:none;stroke:#808080;stroke-width:2;stroke-miterlimit:4;stroke-opacity:1;stroke-dasharray:none"
       id="rect3801-34"
       width="16.428572"
       height="103.70506"
       x="258.88181"
       y="171.29524"
       transform="matrix(0,1,1,0,0,0)" />
    <rect
       style="fill:none;stroke:#808080;stroke-width:2;stroke-miterlimit:4;stroke-opacity:1;stroke-dasharray:none"
       id="rect3801-9-7"
       width="16.428572"
       height="145.86502"
       x="332.5961"
       y="202.27812"
       transform="matrix(0,1,1,0,0,0)" />
    <rect
       style="fill:none;stroke:#808080;stroke-width:2;stroke-miterlimit:4;stroke-opacity:1;stroke-dasharray:none"
       id="rect3801-3-7"
       width="16.428572"
       height="122.89376"
       x="369.45325"
       y="261.67798"
       transform="matrix(0,1,1,0,0,0)" />
    <rect
       style="fill:none;stroke:#808080;stroke-width:2;stroke-miterlimit:4;stroke-opacity:1;stroke-dasharray:none"
       id="rect3801-1-0"
       width="16.428572"
       height="102.13484"
       x="295.73895"
       y="209.29401"
       transform="matrix(0,1,1,0,0,0)" />
    <rect
       style="fill:none;stroke:#808080;stroke-width:2;stroke-miterlimit:4;stroke-opacity:1;stroke-dasharray:none"
       id="rect3801-1-3-7"
       width="16.428572"
       height="102.91066"
       x="222.02467"
       y="135.37535"
       transform="matrix(0,1,1,0,0,0)" />
    <rect
       style="fill:none;stroke:#808080;stroke-width:2;stroke-miterlimit:4;stroke-opacity:1;stroke-dasharray:none"
       id="rect3801-1-5-4"
       width="16.428572"
       height="132.42857"
       x="351.02466"
       y="233.57172"
       transform="matrix(0,1,1,0,0,0)" />
    <rect
       style="fill:none;stroke:#808080;stroke-width:2;stroke-miterlimit:4;stroke-opacity:1;stroke-dasharray:none"
       id="rect3801-1-1-5"
       width="16.428572"
       height="152.21225"
       x="277.31036"
       y="142.07376"
       transform="matrix(0,1,1,0,0,0)" />
    <rect
       style="fill:none;stroke:#808080;stroke-width:2;stroke-miterlimit:4;stroke-opacity:1;stroke-dasharray:none"
       id="rect3801-1-7-3"
       width="16.428572"
       height="100.84945"
       x="240.45325"
       y="155.15083"
       transform="matrix(0,1,1,0,0,0)" />
    <rect
       style="fill:none;stroke:#808080;stroke-width:2;stroke-miterlimit:4;stroke-opacity:1;stroke-dasharray:none"
       id="rect3801-1-8-0"
       width="16.428572"
       height="82.288902"
       x="314.16751"
       y="247.28281"
       transform="matrix(0,1,1,0,0,0)" />
    <path
       style="fill:none;stroke:#000000;stroke-width:2;stroke-linecap:butt;stroke-linejoin:miter;stroke-miterlimit:4;stroke-opacity:1;stroke-dasharray:8, 8;stroke-dashoffset:0"
       d="m 230.89232,285.50874 -167.42042,0"
       id="path4824-6"
       inkscape:connector-curvature="0"
       sodipodi:nodetypes="cc" />
    <path
       style="fill:none;stroke:#000000;stroke-width:2;stroke-linecap:butt;stroke-linejoin:miter;stroke-miterlimit:4;stroke-opacity:1;stroke-dasharray:8, 8;stroke-dashoffset:0"
       d="m 183.41987,183.79889 0,203.42043"
       id="path4824-7"
       inkscape:connector-curvature="0"
       sodipodi:nodetypes="cc" />
    <text
       xml:space="preserve"
       style="font-size:40px;font-style:normal;font-weight:normal;line-height:125%;letter-spacing:0px;word-spacing:0px;fill:#000000;fill-opacity:1;stroke:none;font-family:Sans"
       x="30.438747"
       y="239.03241"
       id="text3795-8-8"
       sodipodi:linespacing="125%"><tspan
         sodipodi:role="line"
         id="tspan3797-7-4"
         x="30.438747"
         y="239.03241"
         style="font-size:40px;font-family:Courier;-inkscape-font-specification:Courier">i</tspan></text>
    <path
       sodipodi:type="arc"
       style="fill:#000000;fill-opacity:1;stroke:none"
       id="path4822-9"
       sodipodi:cx="521.23871"
       sodipodi:cy="196.76297"
       sodipodi:rx="9.0913725"
       sodipodi:ry="9.0913725"
       d="m 530.33008,196.76297 c 0,5.02103 -4.07035,9.09137 -9.09137,9.09137 -5.02103,0 -9.09137,-4.07034 -9.09137,-9.09137 0,-5.02103 4.07034,-9.09137 9.09137,-9.09137 5.02102,0 9.09137,4.07034 9.09137,9.09137 z"
       transform="matrix(0,0.65996636,0.65996636,0,108.94204,-58.207216)" />
    <path
       style="fill:none;stroke:#000000;stroke-width:2;stroke-linecap:butt;stroke-linejoin:miter;stroke-miterlimit:4;stroke-opacity:1;stroke-dasharray:8, 8;stroke-dashoffset:0"
       d="m 230.89273,229.46532 -167.420416,0"
       id="path4824-6-4"
       inkscape:connector-curvature="0"
       sodipodi:nodetypes="cc" />
    <path
       style="fill:none;stroke:#000000;stroke-width:2;stroke-linecap:butt;stroke-linejoin:miter;stroke-miterlimit:4;stroke-opacity:1;stroke-dasharray:8, 8;stroke-dashoffset:0"
       d="m 238.58931,237.79846 0,149.42042"
       id="path4824-7-8"
       inkscape:connector-curvature="0"
       sodipodi:nodetypes="cc" />
    <text
       xml:space="preserve"
       style="font-size:40px;font-style:normal;font-weight:normal;line-height:125%;letter-spacing:0px;word-spacing:0px;fill:#000000;fill-opacity:1;stroke:none;font-family:Sans"
       x="229.27451"
       y="427.37683"
       id="text3795-8-8-4"
       sodipodi:linespacing="125%"><tspan
         sodipodi:role="line"
         id="tspan3797-7-4-9"
         x="229.27451"
         y="427.37683"
         style="font-size:40px;font-family:Courier;-inkscape-font-specification:Courier">i</tspan></text>
    <text
       xml:space="preserve"
       style="font-size:40px;font-style:normal;font-weight:normal;line-height:125%;letter-spacing:0px;word-spacing:0px;fill:#000000;fill-opacity:1;stroke:none;font-family:Sans"
       x="29.118748"
       y="294.17236"
       id="text3795-8-8-4-0"
       sodipodi:linespacing="125%"><tspan
         sodipodi:role="line"
         id="tspan3797-7-4-9-6"
         x="29.118748"
         y="294.17236"
         style="font-size:40px;font-family:Courier;-inkscape-font-specification:Courier">k</tspan></text>
    <path
       sodipodi:type="arc"
       style="fill:#808080;fill-opacity:1;stroke:none"
       id="path4822-9-6-9-5"
       sodipodi:cx="521.23871"
       sodipodi:cy="196.76297"
       sodipodi:rx="9.0913725"
       sodipodi:ry="9.0913725"
       d="m 530.33008,196.76297 c 0,5.02103 -4.07035,9.09137 -9.09137,9.09137 -5.02103,0 -9.09137,-4.07034 -9.09137,-9.09137 0,-5.02103 4.07034,-9.09137 9.09137,-9.09137 5.02102,0 9.09137,4.07034 9.09137,9.09137 z"
       transform="matrix(0,0.65996636,0.65996636,0,108.94237,-113.76113)" />
    <text
       xml:space="preserve"
       style="font-size:40px;font-style:normal;font-weight:normal;line-height:125%;letter-spacing:0px;word-spacing:0px;fill:#000000;fill-opacity:1;stroke:none;font-family:Sans"
       x="32.438747"
       y="179.56227"
       id="text3795-8-4-6"
       sodipodi:linespacing="125%"><tspan
         sodipodi:role="line"
         id="tspan3797-7-5-2"
         x="32.438747"
         y="179.56227"
         style="font-size:40px;font-family:Courier;-inkscape-font-specification:Courier">j</tspan></text>
    <rect
       style="fill:none;stroke:#000000;stroke-width:5;stroke-miterlimit:4;stroke-opacity:1;stroke-dasharray:none"
       id="rect2985"
       width="334.07367"
       height="334.07367"
       x="55.325203"
       y="62.96331"
       ry="0"
       transform="matrix(0,1,1,0,0,0)" />
    <path
       sodipodi:type="arc"
       style="fill:#808080;fill-opacity:1;stroke:none"
       id="path4822"
       sodipodi:cx="521.23871"
       sodipodi:cy="196.76297"
       sodipodi:rx="9.0913725"
       sodipodi:ry="9.0913725"
       d="m 530.33008,196.76297 c 0,5.02103 -4.07035,9.09137 -9.09137,9.09137 -5.02103,0 -9.09137,-4.07034 -9.09137,-9.09137 0,-5.02103 4.07034,-9.09137 9.09137,-9.09137 5.02102,0 9.09137,4.07034 9.09137,9.09137 z"
       transform="matrix(0,0.65996636,0.65996636,0,53.338373,-58.20713)" />
    <path
       sodipodi:type="arc"
       style="fill:#808080;fill-opacity:1;stroke:none"
       id="path4822-9-6-9"
       sodipodi:cx="521.23871"
       sodipodi:cy="196.76297"
       sodipodi:rx="9.0913725"
       sodipodi:ry="9.0913725"
       d="m 530.33008,196.76297 c 0,5.02103 -4.07035,9.09137 -9.09137,9.09137 -5.02103,0 -9.09137,-4.07034 -9.09137,-9.09137 0,-5.02103 4.07034,-9.09137 9.09137,-9.09137 5.02102,0 9.09137,4.07034 9.09137,9.09137 z"
       transform="matrix(0,0.65996636,0.65996636,0,53.338373,-113.76096)" />
    <path
       style="fill:none;stroke:#000000;stroke-width:2;stroke-linecap:butt;stroke-linejoin:miter;stroke-miterlimit:4;stroke-opacity:1;stroke-dasharray:8, 8;stroke-dashoffset:0"
       d="m 174.89273,175.2835 -111.420416,0"
       id="path4824-6-3"
       inkscape:connector-curvature="0"
       sodipodi:nodetypes="cc" />
    <path
       sodipodi:type="arc"
       style="fill:#808080;fill-opacity:1;stroke:none"
       id="path4822-9-6"
       sodipodi:cx="521.23871"
       sodipodi:cy="196.76297"
       sodipodi:rx="9.0913725"
       sodipodi:ry="9.0913725"
       d="m 530.33008,196.76297 c 0,5.02103 -4.07035,9.09137 -9.09137,9.09137 -5.02103,0 -9.09137,-4.07034 -9.09137,-9.09137 0,-5.02103 4.07034,-9.09137 9.09137,-9.09137 5.02102,0 9.09137,4.07034 9.09137,9.09137 z"
       transform="matrix(0,0.65996636,0.65996636,0,53.338373,-169.06213)" />
    <path
       style="fill:none;stroke:#000000;stroke-width:2;stroke-linecap:butt;stroke-linejoin:miter;stroke-miterlimit:4;stroke-opacity:1;stroke-dasharray:none;marker-start:url(#Arrow1Mstart)"
       d="m 233.18977,276.14987 c 0,0 -5.98303,-17.01952 -15.5049,-27.65233 -9.52187,-10.63281 -26.70357,-14.9257 -26.70357,-14.9257"
       id="path5315"
       inkscape:connector-curvature="0"
       sodipodi:nodetypes="czc" />
    <path
       style="fill:none;stroke:#000000;stroke-width:2;stroke-linecap:butt;stroke-linejoin:miter;stroke-miterlimit:4;stroke-opacity:1;stroke-dasharray:none;marker-start:url(#Arrow1Mstart)"
       d="m 250.01543,283.7926 c 0,0 30.91582,-11.04892 42.00892,-31.05131 9.03687,-16.29471 4.30393,-40.6039 -21.66031,-61.26897 -25.96424,-20.66506 -78.38895,-16.15855 -78.38895,-16.15855"
       id="path5315-0"
       inkscape:connector-curvature="0"
       sodipodi:nodetypes="cszc" />
    <path
       style="fill:none;stroke:#000000;stroke-width:2;stroke-linecap:butt;stroke-linejoin:miter;stroke-miterlimit:4;stroke-opacity:1;stroke-dasharray:none;marker-start:url(#Arrow1Mstart)"
       d="m 230.22884,293.29774 c 0,0 -11.9416,6.77739 -22.2434,7.90027 -10.3018,1.12288 -19.74129,-9.15882 -19.74129,-9.15882"
       id="path5315-7"
       inkscape:connector-curvature="0"
       sodipodi:nodetypes="czc" />
    <path
       style="fill:none;stroke:#000000;stroke-width:2;stroke-linecap:butt;stroke-linejoin:miter;stroke-miterlimit:4;stroke-opacity:1;stroke-dasharray:none;marker-start:url(#Arrow1Mstart)"
       d="m 247.81606,278.31997 c 0,0 11.84446,-11.9289 14.77069,-25.01665 2.92623,-13.08775 -16.23631,-21.34189 -16.23631,-21.34189"
       id="path5315-5"
       inkscape:connector-curvature="0"
       sodipodi:nodetypes="czc" />
  </g>
</svg>
