<?xml version="1.0" encoding="UTF-8" standalone="no"?>
<!-- Created with Inkscape (http://www.inkscape.org/) -->

<svg
   xmlns:dc="http://purl.org/dc/elements/1.1/"
   xmlns:cc="http://creativecommons.org/ns#"
   xmlns:rdf="http://www.w3.org/1999/02/22-rdf-syntax-ns#"
   xmlns:svg="http://www.w3.org/2000/svg"
   xmlns="http://www.w3.org/2000/svg"
   xmlns:sodipodi="http://sodipodi.sourceforge.net/DTD/sodipodi-0.dtd"
   xmlns:inkscape="http://www.inkscape.org/namespaces/inkscape"
   width="1207.9003"
   height="581.33917"
   id="svg2"
   version="1.1"
   inkscape:version="0.48.1 r9760"
   sodipodi:docname="ddm_pc.svg">
  <defs
     id="defs4">
    <marker
       inkscape:stockid="Arrow1Send"
       orient="auto"
       refY="0"
       refX="0"
       id="Arrow1Send"
       style="overflow:visible">
      <path
         id="path3884"
         d="M 0,0 5,-5 -12.5,0 5,5 0,0 z"
         style="fill-rule:evenodd;stroke:#000000;stroke-width:1pt;marker-start:none"
         transform="matrix(-0.2,0,0,-0.2,-1.2,0)"
         inkscape:connector-curvature="0" />
    </marker>
    <marker
       inkscape:stockid="Arrow2Mend"
       orient="auto"
       refY="0"
       refX="0"
       id="Arrow2Mend"
       style="overflow:visible">
      <path
         id="path3896"
         style="font-size:12px;fill-rule:evenodd;stroke-width:0.625;stroke-linejoin:round"
         d="M 8.7185878,4.0337352 -2.2072895,0.01601326 8.7185884,-4.0017078 c -1.7454984,2.3720609 -1.7354408,5.6174519 -6e-7,8.035443 z"
         transform="scale(-0.6,-0.6)"
         inkscape:connector-curvature="0" />
    </marker>
    <marker
       inkscape:stockid="Arrow1Mend"
       orient="auto"
       refY="0"
       refX="0"
       id="Arrow1Mend"
       style="overflow:visible">
      <path
         id="path3878"
         d="M 0,0 5,-5 -12.5,0 5,5 0,0 z"
         style="fill-rule:evenodd;stroke:#000000;stroke-width:1pt;marker-start:none"
         transform="matrix(-0.4,0,0,-0.4,-4,0)"
         inkscape:connector-curvature="0" />
    </marker>
    <marker
       inkscape:stockid="Arrow1Lend"
       orient="auto"
       refY="0"
       refX="0"
       id="Arrow1Lend"
       style="overflow:visible">
      <path
         id="path3872"
         d="M 0,0 5,-5 -12.5,0 5,5 0,0 z"
         style="fill-rule:evenodd;stroke:#000000;stroke-width:1pt;marker-start:none"
         transform="matrix(-0.8,0,0,-0.8,-10,0)"
         inkscape:connector-curvature="0" />
    </marker>
    <marker
       inkscape:stockid="Arrow1Lstart"
       orient="auto"
       refY="0"
       refX="0"
       id="Arrow1Lstart"
       style="overflow:visible">
      <path
         id="path3869"
         d="M 0,0 5,-5 -12.5,0 5,5 0,0 z"
         style="fill-rule:evenodd;stroke:#000000;stroke-width:1pt;marker-start:none"
         transform="matrix(0.8,0,0,0.8,10,0)"
         inkscape:connector-curvature="0" />
    </marker>
    <marker
       style="overflow:visible"
       id="Arrow1Mend-74"
       refX="0"
       refY="0"
       orient="auto"
       inkscape:stockid="Arrow1Mend">
      <path
         inkscape:connector-curvature="0"
         transform="matrix(-0.4,0,0,-0.4,-4,0)"
         style="fill-rule:evenodd;stroke:#000000;stroke-width:1pt;marker-start:none"
         d="M 0,0 5,-5 -12.5,0 5,5 0,0 z"
         id="path3847-16" />
    </marker>
    <marker
       style="overflow:visible"
       id="Arrow1Mend-10"
       refX="0"
       refY="0"
       orient="auto"
       inkscape:stockid="Arrow1Mend">
      <path
         transform="matrix(-0.4,0,0,-0.4,-4,0)"
         style="fill-rule:evenodd;stroke:#000000;stroke-width:1pt;marker-start:none"
         d="M 0,0 5,-5 -12.5,0 5,5 0,0 z"
         id="path3847-88"
         inkscape:connector-curvature="0" />
    </marker>
    <marker
       style="overflow:visible"
       id="marker4981"
       refX="0"
       refY="0"
       orient="auto"
       inkscape:stockid="Arrow1Mend">
      <path
         transform="matrix(-0.4,0,0,-0.4,-4,0)"
         style="fill-rule:evenodd;stroke:#000000;stroke-width:1pt;marker-start:none"
         d="M 0,0 5,-5 -12.5,0 5,5 0,0 z"
         id="path4983"
         inkscape:connector-curvature="0" />
    </marker>
    <marker
       style="overflow:visible"
       id="marker4977"
       refX="0"
       refY="0"
       orient="auto"
       inkscape:stockid="Arrow1Mend">
      <path
         transform="matrix(-0.4,0,0,-0.4,-4,0)"
         style="fill-rule:evenodd;stroke:#000000;stroke-width:1pt;marker-start:none"
         d="M 0,0 5,-5 -12.5,0 5,5 0,0 z"
         id="path4979"
         inkscape:connector-curvature="0" />
    </marker>
    <marker
       style="overflow:visible"
       id="Arrow1Mend-66"
       refX="0"
       refY="0"
       orient="auto"
       inkscape:stockid="Arrow1Mend">
      <path
         transform="matrix(-0.4,0,0,-0.4,-4,0)"
         style="fill-rule:evenodd;stroke:#000000;stroke-width:1pt;marker-start:none"
         d="M 0,0 5,-5 -12.5,0 5,5 0,0 z"
         id="path3847-8"
         inkscape:connector-curvature="0" />
    </marker>
    <marker
       style="overflow:visible"
       id="Arrow1Mend-7"
       refX="0"
       refY="0"
       orient="auto"
       inkscape:stockid="Arrow1Mend">
      <path
         transform="matrix(-0.4,0,0,-0.4,-4,0)"
         style="fill-rule:evenodd;stroke:#000000;stroke-width:1pt;marker-start:none"
         d="M 0,0 5,-5 -12.5,0 5,5 0,0 z"
         id="path3847-45"
         inkscape:connector-curvature="0" />
    </marker>
    <marker
       style="overflow:visible"
       id="Arrow1Mend-47"
       refX="0"
       refY="0"
       orient="auto"
       inkscape:stockid="Arrow1Mend">
      <path
         transform="matrix(-0.4,0,0,-0.4,-4,0)"
         style="fill-rule:evenodd;stroke:#000000;stroke-width:1pt;marker-start:none"
         d="M 0,0 5,-5 -12.5,0 5,5 0,0 z"
         id="path3847-7"
         inkscape:connector-curvature="0" />
    </marker>
    <marker
       style="overflow:visible"
       id="Arrow1Mend-6"
       refX="0"
       refY="0"
       orient="auto"
       inkscape:stockid="Arrow1Mend">
      <path
         transform="matrix(-0.4,0,0,-0.4,-4,0)"
         style="fill-rule:evenodd;stroke:#000000;stroke-width:1pt;marker-start:none"
         d="M 0,0 5,-5 -12.5,0 5,5 0,0 z"
         id="path3847-4"
         inkscape:connector-curvature="0" />
    </marker>
    <marker
       style="overflow:visible"
       id="Arrow1Mend-04"
       refX="0"
       refY="0"
       orient="auto"
       inkscape:stockid="Arrow1Mend">
      <path
         transform="matrix(-0.4,0,0,-0.4,-4,0)"
         style="fill-rule:evenodd;stroke:#000000;stroke-width:1pt;marker-start:none"
         d="M 0,0 5,-5 -12.5,0 5,5 0,0 z"
         id="path3847-11"
         inkscape:connector-curvature="0" />
    </marker>
    <marker
       style="overflow:visible"
       id="Arrow1Mend-8"
       refX="0"
       refY="0"
       orient="auto"
       inkscape:stockid="Arrow1Mend">
      <path
         transform="matrix(-0.4,0,0,-0.4,-4,0)"
         style="fill-rule:evenodd;stroke:#000000;stroke-width:1pt;marker-start:none"
         d="M 0,0 5,-5 -12.5,0 5,5 0,0 z"
         id="path3847-1"
         inkscape:connector-curvature="0" />
    </marker>
    <marker
       style="overflow:visible"
       id="Arrow1Mend-1"
       refX="0"
       refY="0"
       orient="auto"
       inkscape:stockid="Arrow1Mend">
      <path
         transform="matrix(-0.4,0,0,-0.4,-4,0)"
         style="fill-rule:evenodd;stroke:#000000;stroke-width:1pt;marker-start:none"
         d="M 0,0 5,-5 -12.5,0 5,5 0,0 z"
         id="path3847-31"
         inkscape:connector-curvature="0" />
    </marker>
    <marker
       style="overflow:visible"
       id="Arrow1Mend-45"
       refX="0"
       refY="0"
       orient="auto"
       inkscape:stockid="Arrow1Mend">
      <path
         transform="matrix(-0.4,0,0,-0.4,-4,0)"
         style="fill-rule:evenodd;stroke:#000000;stroke-width:1pt;marker-start:none"
         d="M 0,0 5,-5 -12.5,0 5,5 0,0 z"
         id="path3847-38"
         inkscape:connector-curvature="0" />
    </marker>
    <marker
       style="overflow:visible"
       id="Arrow1Mend-3"
       refX="0"
       refY="0"
       orient="auto"
       inkscape:stockid="Arrow1Mend">
      <path
         transform="matrix(-0.4,0,0,-0.4,-4,0)"
         style="fill-rule:evenodd;stroke:#000000;stroke-width:1pt;marker-start:none"
         d="M 0,0 5,-5 -12.5,0 5,5 0,0 z"
         id="path3847-34"
         inkscape:connector-curvature="0" />
    </marker>
    <marker
       style="overflow:visible"
       id="Arrow1Mend-9"
       refX="0"
       refY="0"
       orient="auto"
       inkscape:stockid="Arrow1Mend">
      <path
         transform="matrix(-0.4,0,0,-0.4,-4,0)"
         style="fill-rule:evenodd;stroke:#000000;stroke-width:1pt;marker-start:none"
         d="M 0,0 5,-5 -12.5,0 5,5 0,0 z"
         id="path3847-0"
         inkscape:connector-curvature="0" />
    </marker>
    <marker
       style="overflow:visible"
       id="Arrow1Mend-0"
       refX="0"
       refY="0"
       orient="auto"
       inkscape:stockid="Arrow1Mend">
      <path
         transform="matrix(-0.4,0,0,-0.4,-4,0)"
         style="fill-rule:evenodd;stroke:#000000;stroke-width:1pt;marker-start:none"
         d="M 0,0 5,-5 -12.5,0 5,5 0,0 z"
         id="path3847-3"
         inkscape:connector-curvature="0" />
    </marker>
    <marker
       style="overflow:visible"
       id="Arrow1Mend-4"
       refX="0"
       refY="0"
       orient="auto"
       inkscape:stockid="Arrow1Mend">
      <path
         transform="matrix(-0.4,0,0,-0.4,-4,0)"
         style="fill-rule:evenodd;stroke:#000000;stroke-width:1pt;marker-start:none"
         d="M 0,0 5,-5 -12.5,0 5,5 0,0 z"
         id="path3847-2"
         inkscape:connector-curvature="0" />
    </marker>
    <marker
       style="overflow:visible"
       id="Arrow1Sstart"
       refX="0"
       refY="0"
       orient="auto"
       inkscape:stockid="Arrow1Sstart">
      <path
         inkscape:connector-curvature="0"
         transform="matrix(0.2,0,0,0.2,1.2,0)"
         style="fill-rule:evenodd;stroke:#000000;stroke-width:1pt;marker-start:none"
         d="M 0,0 5,-5 -12.5,0 5,5 0,0 z"
         id="path3850" />
    </marker>
    <marker
       style="overflow:visible"
       id="Arrow1Mend-2"
       refX="0"
       refY="0"
       orient="auto"
       inkscape:stockid="Arrow1Mend">
      <path
         inkscape:connector-curvature="0"
         transform="matrix(-0.4,0,0,-0.4,-4,0)"
         style="fill-rule:evenodd;stroke:#000000;stroke-width:1pt;marker-start:none"
         d="M 0,0 5,-5 -12.5,0 5,5 0,0 z"
         id="path3847" />
    </marker>
    <marker
       inkscape:stockid="Arrow1Mend"
       orient="auto"
       refY="0"
       refX="0"
       id="Arrow1Mend-5"
       style="overflow:visible">
      <path
         id="path3847-5"
         d="M 0,0 5,-5 -12.5,0 5,5 0,0 z"
         style="fill-rule:evenodd;stroke:#000000;stroke-width:1pt;marker-start:none"
         transform="matrix(-0.4,0,0,-0.4,-4,0)"
         inkscape:connector-curvature="0" />
    </marker>
    <marker
       inkscape:stockid="Arrow1Mend"
       orient="auto"
       refY="0"
       refX="0"
       id="marker3093"
       style="overflow:visible">
      <path
         id="path3095"
         d="M 0,0 5,-5 -12.5,0 5,5 0,0 z"
         style="fill-rule:evenodd;stroke:#000000;stroke-width:1pt;marker-start:none"
         transform="matrix(-0.4,0,0,-0.4,-4,0)"
         inkscape:connector-curvature="0" />
    </marker>
    <marker
       inkscape:stockid="Arrow1Mend"
       orient="auto"
       refY="0"
       refX="0"
       id="marker3097"
       style="overflow:visible">
      <path
         id="path3099"
         d="M 0,0 5,-5 -12.5,0 5,5 0,0 z"
         style="fill-rule:evenodd;stroke:#000000;stroke-width:1pt;marker-start:none"
         transform="matrix(-0.4,0,0,-0.4,-4,0)"
         inkscape:connector-curvature="0" />
    </marker>
    <marker
       inkscape:stockid="Arrow1Mend"
       orient="auto"
       refY="0"
       refX="0"
       id="marker3101"
       style="overflow:visible">
      <path
         id="path3103"
         d="M 0,0 5,-5 -12.5,0 5,5 0,0 z"
         style="fill-rule:evenodd;stroke:#000000;stroke-width:1pt;marker-start:none"
         transform="matrix(-0.4,0,0,-0.4,-4,0)"
         inkscape:connector-curvature="0" />
    </marker>
    <marker
       inkscape:stockid="Arrow1Mend"
       orient="auto"
       refY="0"
       refX="0"
       id="marker3105"
       style="overflow:visible">
      <path
         id="path3107"
         d="M 0,0 5,-5 -12.5,0 5,5 0,0 z"
         style="fill-rule:evenodd;stroke:#000000;stroke-width:1pt;marker-start:none"
         transform="matrix(-0.4,0,0,-0.4,-4,0)"
         inkscape:connector-curvature="0" />
    </marker>
    <marker
       inkscape:stockid="Arrow1Mend"
       orient="auto"
       refY="0"
       refX="0"
       id="marker3109"
       style="overflow:visible">
      <path
         id="path3111"
         d="M 0,0 5,-5 -12.5,0 5,5 0,0 z"
         style="fill-rule:evenodd;stroke:#000000;stroke-width:1pt;marker-start:none"
         transform="matrix(-0.4,0,0,-0.4,-4,0)"
         inkscape:connector-curvature="0" />
    </marker>
    <marker
       inkscape:stockid="Arrow1Mend"
       orient="auto"
       refY="0"
       refX="0"
       id="marker3113"
       style="overflow:visible">
      <path
         id="path3115"
         d="M 0,0 5,-5 -12.5,0 5,5 0,0 z"
         style="fill-rule:evenodd;stroke:#000000;stroke-width:1pt;marker-start:none"
         transform="matrix(-0.4,0,0,-0.4,-4,0)"
         inkscape:connector-curvature="0" />
    </marker>
    <marker
       inkscape:stockid="Arrow1Mend"
       orient="auto"
       refY="0"
       refX="0"
       id="Arrow1Mend-33"
       style="overflow:visible">
      <path
         id="path3878-3"
         d="M 0,0 5,-5 -12.5,0 5,5 0,0 z"
         style="fill-rule:evenodd;stroke:#000000;stroke-width:1pt;marker-start:none"
         transform="matrix(-0.4,0,0,-0.4,-4,0)"
         inkscape:connector-curvature="0" />
    </marker>
    <marker
       inkscape:stockid="Arrow1Mend"
       orient="auto"
       refY="0"
       refX="0"
       id="marker4115"
       style="overflow:visible">
      <path
         id="path4117"
         d="M 0,0 5,-5 -12.5,0 5,5 0,0 z"
         style="fill-rule:evenodd;stroke:#000000;stroke-width:1pt;marker-start:none"
         transform="matrix(-0.4,0,0,-0.4,-4,0)"
         inkscape:connector-curvature="0" />
    </marker>
    <marker
       inkscape:stockid="Arrow1Mend"
       orient="auto"
       refY="0"
       refX="0"
       id="marker4119"
       style="overflow:visible">
      <path
         id="path4121"
         d="M 0,0 5,-5 -12.5,0 5,5 0,0 z"
         style="fill-rule:evenodd;stroke:#000000;stroke-width:1pt;marker-start:none"
         transform="matrix(-0.4,0,0,-0.4,-4,0)"
         inkscape:connector-curvature="0" />
    </marker>
    <marker
       inkscape:stockid="Arrow1Mend"
       orient="auto"
       refY="0"
       refX="0"
       id="marker4123"
       style="overflow:visible">
      <path
         id="path4125"
         d="M 0,0 5,-5 -12.5,0 5,5 0,0 z"
         style="fill-rule:evenodd;stroke:#000000;stroke-width:1pt;marker-start:none"
         transform="matrix(-0.4,0,0,-0.4,-4,0)"
         inkscape:connector-curvature="0" />
    </marker>
    <marker
       inkscape:stockid="Arrow1Mend"
       orient="auto"
       refY="0"
       refX="0"
       id="marker4127"
       style="overflow:visible">
      <path
         id="path4129"
         d="M 0,0 5,-5 -12.5,0 5,5 0,0 z"
         style="fill-rule:evenodd;stroke:#000000;stroke-width:1pt;marker-start:none"
         transform="matrix(-0.4,0,0,-0.4,-4,0)"
         inkscape:connector-curvature="0" />
    </marker>
    <marker
       inkscape:stockid="Arrow1Mend"
       orient="auto"
       refY="0"
       refX="0"
       id="marker4131"
       style="overflow:visible">
      <path
         id="path4133"
         d="M 0,0 5,-5 -12.5,0 5,5 0,0 z"
         style="fill-rule:evenodd;stroke:#000000;stroke-width:1pt;marker-start:none"
         transform="matrix(-0.4,0,0,-0.4,-4,0)"
         inkscape:connector-curvature="0" />
    </marker>
  </defs>
  <sodipodi:namedview
     id="base"
     pagecolor="#ffffff"
     bordercolor="#666666"
     borderopacity="1.0"
     inkscape:pageopacity="0.0"
     inkscape:pageshadow="2"
     inkscape:zoom="0.98994952"
     inkscape:cx="533.59566"
     inkscape:cy="141.61184"
     inkscape:document-units="px"
     inkscape:current-layer="layer1"
     showgrid="false"
     inkscape:window-width="1543"
     inkscape:window-height="957"
     inkscape:window-x="24"
     inkscape:window-y="15"
     inkscape:window-maximized="0"
     fit-margin-top="0"
     fit-margin-left="0"
     fit-margin-right="0"
     fit-margin-bottom="0"
     showguides="true"
     inkscape:guide-bbox="true" />
  <metadata
     id="metadata7">
    <rdf:RDF>
      <cc:Work
         rdf:about="">
        <dc:format>image/svg+xml</dc:format>
        <dc:type
           rdf:resource="http://purl.org/dc/dcmitype/StillImage" />
        <dc:title />
      </cc:Work>
    </rdf:RDF>
  </metadata>
  <g
     inkscape:label="レイヤー 1"
     inkscape:groupmode="layer"
     id="layer1"
     transform="translate(-12.013045,-146.99102)">
    <path
       style="fill:#ffcccc;fill-opacity:1;stroke:#000000;stroke-width:5;stroke-linecap:butt;stroke-linejoin:miter;stroke-miterlimit:4;stroke-opacity:1;stroke-dasharray:none"
       d="m 422.85679,380.92852 -122.84375,55.71875 30.28125,205.71875 3.5,21.875 c 9.29336,-4.51416 18.58716,-9.38809 27.84375,-14.625 9.25658,-5.23691 18.49961,-10.82759 27.65625,-16.78125 9.15663,-5.95364 10.22524,-6.2731 19.21875,-12.9375 0.68341,-0.50643 1.35142,-1.02257 2.03125,-1.53125 l -8.75,-19.4375 c 0,0 -19.62954,-42.36038 -15.78125,-58.375 3.84829,-16.01462 17.42631,-29.96092 28.65625,-34.0625 9.04141,-3.30225 24.50888,-1.82565 32.6875,3.25 11.30439,7.0155 23.625,33.53125 23.625,33.53125 l 8.59375,17.71875 c 6.65095,-6.42993 3.05645,-4.97955 9.1875,-11.59375 7.02364,-7.57711 13.7125,-15.23605 20.03125,-23 6.31876,-7.76396 12.25402,-15.6079 17.84376,-23.5 l -15.21876,-16.25 z"
       id="path3779"
       inkscape:connector-curvature="0"
       sodipodi:nodetypes="ccccssscczssccssccc" />
    <path
       style="fill:#ffffcc;fill-opacity:1;stroke:#000000;stroke-width:5;stroke-linejoin:miter;stroke-miterlimit:4;stroke-opacity:1;stroke-dasharray:none;stroke-dashoffset:0"
       d="m 571.11557,280.65095 c -3.02767,-5.94531 -6.54653,-11.64654 -10.56865,-17.07434 -4.02213,-5.4278 -8.45232,-10.4537 -13.259,-15.08072 -4.80667,-4.62702 -9.98983,-8.85515 -15.51787,-12.68738 -5.52806,-3.83224 -11.40099,-7.26859 -17.58725,-10.31205 -6.18624,-3.04346 -12.68578,-5.69404 -19.46704,-7.95473 -6.78127,-2.26069 -13.84423,-4.1315 -21.15732,-5.61542 -7.3131,-1.48392 -14.87632,-2.58094 -22.65807,-3.29409 -7.78175,-0.71316 -15.78205,-1.04242 -23.96927,-0.9908 -8.18724,0.0516 -16.56142,0.48411 -25.09095,1.29449 -8.52953,0.81037 -17.21442,1.99864 -26.02308,3.56178 L 390,239.50504 l 32.85714,81.14285 115.71429,-30.85713 z"
       id="path6214"
       inkscape:connector-curvature="0" />
    <path
       style="fill:#ffccff;fill-opacity:1;stroke:#000000;stroke-width:5;stroke-linejoin:miter;stroke-miterlimit:4;stroke-opacity:1;stroke-dasharray:none;stroke-dashoffset:0"
       d="m 542.29714,479.09107 c 4.83658,-7.96156 9.29056,-15.94317 13.34987,-23.91549 4.05931,-7.97232 7.72394,-15.93535 10.98183,-23.85972 3.2579,-7.92438 6.10906,-15.81011 8.54141,-23.62786 2.43235,-7.81774 4.4459,-15.5675 6.02858,-23.21991 1.58268,-7.6524 2.73449,-15.20747 3.44336,-22.63585 0.70887,-7.42838 0.97481,-14.73008 0.78575,-21.87574 -0.18907,-7.14567 -0.83313,-14.13529 -1.94425,-20.93952 -1.11114,-6.80425 -2.68933,-13.42309 -4.74667,-19.82722 l -18.73701,5.45815 -128.85715,36.57143 94.57143,116.85713 z"
       id="path6212"
       inkscape:connector-curvature="0" />
    <path
       style="fill:#ffffcc;fill-opacity:1;stroke:#000000;stroke-width:5;stroke-linejoin:miter;stroke-miterlimit:4;stroke-opacity:1;stroke-dasharray:none;stroke-dashoffset:0"
       d="m 91.217162,386.91079 c 6.318751,-7.76395 12.995978,-15.44916 20.019618,-23.02627 7.02364,-7.57712 14.39368,-15.04613 22.09807,-22.3777 7.70439,-7.33157 15.74313,-14.52569 24.10414,-21.55302 8.36101,-7.02733 17.04431,-13.88787 26.03782,-20.55227 8.9935,-6.66439 18.08436,-12.97492 27.241,-18.92857 l 7.85363,23.31779 32.85713,92.85715 -77.14286,88.57143 -52.85714,-36.28572 -21.428572,-45.14286 z"
       id="path6210"
       inkscape:connector-curvature="0" />
    <path
       style="fill:#ccccff;fill-opacity:1;stroke:#000000;stroke-width:5;stroke-linejoin:miter;stroke-miterlimit:4;stroke-opacity:1;stroke-dasharray:none;stroke-dashoffset:0"
       d="m 238.35343,263.68562 c 9.25659,-5.23691 18.54735,-10.11394 27.84071,-14.6281 9.29336,-4.51416 18.58931,-8.66544 27.85625,-12.45085 9.26695,-3.78541 18.5049,-7.20494 27.68227,-10.25559 9.17736,-3.05065 18.29413,-5.73243 27.31874,-8.04233 l 7.80574,21.19629 37.42857,97.14286 14.28572,27.14285 -115.71429,47.14286 -48.57143,-135.71428 z"
       id="path2985"
       inkscape:connector-curvature="0" />
    <path
       style="fill:#ffffcc;fill-opacity:1;stroke:#000000;stroke-width:5;stroke-linecap:butt;stroke-linejoin:miter;stroke-miterlimit:4;stroke-opacity:1;stroke-dasharray:none"
       d="m 131.71429,679.50504 32.28571,-142 127.71429,19.14286 10.28571,90 3.94963,30.04124 c -9.26695,3.78541 -18.5049,7.20494 -27.68226,10.25559 -9.17737,3.05066 -18.29415,5.73244 -27.31874,8.04233 -9.0246,2.3099 -17.95702,4.24792 -26.76568,5.81106 -8.80866,1.56315 -17.49355,2.7514 -26.02308,3.56178 -8.52954,0.81038 -16.90371,1.24288 -25.09095,1.2945 -8.18723,0.0516 -16.18752,-0.27766 -23.96927,-0.9908 -7.78175,-0.71315 -15.34497,-1.81019 -22.65806,-3.2941 z"
       id="path3785"
       inkscape:connector-curvature="0"
       sodipodi:nodetypes="cccccsssssscc" />
    <path
       style="fill:#ffccff;fill-opacity:1;stroke:#000000;stroke-width:5;stroke-linecap:butt;stroke-linejoin:miter;stroke-miterlimit:4;stroke-opacity:1;stroke-dasharray:none"
       d="m 171.71429,516.36218 86.85714,-104 20,20 10.85714,105.14286 z"
       id="path3787"
       inkscape:connector-curvature="0"
       sodipodi:nodetypes="ccccc" />
    <path
       style="fill:#ffcccc;fill-opacity:1;stroke:#000000;stroke-width:5;stroke-linecap:butt;stroke-linejoin:miter;stroke-miterlimit:4;stroke-opacity:1;stroke-dasharray:none"
       d="m 81.428571,426.6479 21.428569,40 54.28572,27.14285 -20.57143,59.71429 -96.57143,-20 -21.19881,-4.67732 c 1.582683,-7.65241 3.59623,-15.40216 6.028586,-23.21991 2.432349,-7.81774 5.283496,-15.70347 8.541402,-23.62785 3.257897,-7.92438 6.922525,-15.88741 10.981836,-23.85973 4.059311,-7.97231 8.513279,-15.95393 13.349873,-23.91549 4.836588,-7.96156 10.055781,-15.90307 15.645515,-23.79517 z"
       id="path3789"
       inkscape:connector-curvature="0"
       sodipodi:nodetypes="ccccccsssscc" />
    <path
       style="fill:#ffccff;fill-opacity:1;stroke:#000000;stroke-width:5;stroke-linecap:butt;stroke-linejoin:miter;stroke-miterlimit:4;stroke-opacity:1;stroke-dasharray:none"
       d="m 35.714286,555.79075 94.857144,16.57143 -16,78.57143 -9.28718,44.82048 C 98.502996,693.49341 92.003443,690.84283 85.817203,687.79937 79.630961,684.7559 73.758019,681.31954 68.229972,677.48731 62.701927,673.65507 57.51877,669.42695 52.712094,664.79993 47.905418,660.17291 43.475218,655.147 39.453097,649.7192 35.43097,644.2914 31.91211,638.59018 28.884449,632.64487 c -3.027661,-5.94531 -5.564124,-12.1347 -7.621453,-18.53881 -2.057327,-6.40412 -3.635526,-13.02298 -4.746659,-19.82722 -1.111128,-6.80424 -1.755203,-13.79386 -1.944262,-20.93952 -0.189065,-7.14567 0.07687,-14.44735 0.785742,-21.87574 z"
       id="path3791"
       inkscape:connector-curvature="0"
       sodipodi:nodetypes="ccccsssssssscc" />
    <path
       style="fill-opacity:0.07843137;stroke:#000000;stroke-width:1px;stroke-linecap:butt;stroke-linejoin:miter;stroke-opacity:1"
       d="m 32.113458,644.70737 0,71.12281"
       id="path3795"
       inkscape:connector-curvature="0"
       sodipodi:nodetypes="cc" />
    <path
       style="fill-opacity:0.07843137;stroke:#000000;stroke-width:1px;stroke-linecap:butt;stroke-linejoin:miter;stroke-opacity:1"
       d="m 58.588848,670.77761 0,53.05257"
       id="path3795-1"
       inkscape:connector-curvature="0"
       sodipodi:nodetypes="cc" />
    <path
       style="fill-opacity:0.07843137;stroke:#000000;stroke-width:1px;stroke-linecap:butt;stroke-linejoin:miter;stroke-opacity:1"
       d="m 45.456865,659.76746 0,60.06272"
       id="path3795-6"
       inkscape:connector-curvature="0"
       sodipodi:nodetypes="cc" />
    <path
       style="fill-opacity:0.07843137;stroke:#000000;stroke-width:1px;stroke-linecap:butt;stroke-linejoin:miter;stroke-opacity:1"
       d="m 20.182746,609.5441 0,102.28608"
       id="path3795-5"
       inkscape:connector-curvature="0"
       sodipodi:nodetypes="cc" />
    <path
       style="fill-opacity:0.07843137;stroke:#000000;stroke-width:1px;stroke-linecap:butt;stroke-linejoin:miter;stroke-opacity:1"
       d="m 70.791899,682.77761 0,45.05257"
       id="path3795-7"
       inkscape:connector-curvature="0"
       sodipodi:nodetypes="cc" />
    <g
       id="g8135"
       transform="matrix(0.04760377,-0.99886629,-0.99886629,-0.04760377,760.48829,808.15233)">
      <path
         sodipodi:nodetypes="cc"
         inkscape:connector-curvature="0"
         id="path3795-2"
         d="m 583.37385,373.86056 53.69841,-60.95018"
         style="fill-opacity:0.07843137;stroke:#000000;stroke-width:1px;stroke-linecap:butt;stroke-linejoin:miter;stroke-opacity:1;marker-end:url(#Arrow1Lend)" />
      <path
         sodipodi:nodetypes="cc"
         inkscape:connector-curvature="0"
         id="path3795-1-4"
         d="m 586.24978,330.83565 30.72611,-35.16133"
         style="fill-opacity:0.07843137;stroke:#000000;stroke-width:1px;stroke-linecap:butt;stroke-linejoin:miter;stroke-opacity:1;marker-end:url(#Arrow1Lend)" />
      <path
         sodipodi:nodetypes="cc"
         inkscape:connector-curvature="0"
         id="path3795-6-9"
         d="m 585.04987,351.74222 41.89397,-47.51868"
         style="fill-opacity:0.07843137;stroke:#000000;stroke-width:1px;stroke-linecap:butt;stroke-linejoin:miter;stroke-opacity:1;marker-end:url(#Arrow1Lend)" />
      <path
         sodipodi:nodetypes="cc"
         inkscape:connector-curvature="0"
         id="path3795-5-9"
         d="m 579.53792,398.31872 66.59045,-77.64118"
         style="fill-opacity:0.07843137;stroke:#000000;stroke-width:1px;stroke-linecap:butt;stroke-linejoin:miter;stroke-opacity:1;marker-end:url(#Arrow1Lend)" />
      <path
         sodipodi:nodetypes="cc"
         inkscape:connector-curvature="0"
         id="path3795-7-9"
         d="m 582.7992,315.78249 24.91385,-28.05261"
         style="fill-opacity:0.07843137;stroke:#000000;stroke-width:1px;stroke-linecap:butt;stroke-linejoin:miter;stroke-opacity:1;marker-start:none;marker-end:url(#Arrow1Lend)" />
    </g>
    <g
       id="g4432"
       transform="translate(-12.857143,-27.142856)">
      <rect
         ry="39.233719"
         y="248.55971"
         x="657.91895"
         height="354.64282"
         width="407.12112"
         id="rect4314"
         style="fill:#dddddd;fill-opacity:1;stroke:none" />
      <path
         sodipodi:nodetypes="cc"
         inkscape:connector-curvature="0"
         id="path3065-2"
         d="m 851.65349,186.95434 0,144.27578"
         style="fill:none;stroke:#000000;stroke-width:1.06754518px;stroke-linecap:butt;stroke-linejoin:miter;stroke-opacity:1;marker-end:none" />
      <path
         sodipodi:nodetypes="ccccc"
         inkscape:connector-curvature="0"
         id="rect3024"
         d="m 851.65349,501.61537 104.46698,33.0939 -104.46698,33.0939 -104.46689,-33.0939 z"
         style="fill:#aaaaaa;fill-opacity:1;stroke:#000000;stroke-width:1.06754518;stroke-linejoin:miter;stroke-miterlimit:4;stroke-opacity:1;stroke-dashoffset:0" />
      <text
         sodipodi:linespacing="125%"
         id="text2988-77"
         y="541.39215"
         x="785.12994"
         style="font-size:21.35090256px;font-style:normal;font-variant:normal;font-weight:500;font-stretch:normal;line-height:125%;letter-spacing:0px;word-spacing:0px;fill:#000000;fill-opacity:1;stroke:none;font-family:URW Palladio L;-inkscape-font-specification:URW Palladio L Medium"
         xml:space="preserve"><tspan
           y="541.39215"
           x="785.12994"
           id="tspan2990-69"
           sodipodi:role="line"
           style="font-style:normal;font-variant:normal;font-weight:normal;font-stretch:normal;font-family:Palatino;-inkscape-font-specification:Palatino">Convergence?</tspan></text>
      <path
         sodipodi:nodetypes="cc"
         inkscape:connector-curvature="0"
         id="path3065"
         d="m 957.67761,330.71283 0,40.41421"
         style="fill:none;stroke:#000000;stroke-width:1.06754518px;stroke-linecap:butt;stroke-linejoin:miter;stroke-opacity:1;marker-end:url(#Arrow1Mend)" />
      <path
         sodipodi:nodetypes="cc"
         inkscape:connector-curvature="0"
         id="path3065-0"
         d="m 704.25015,330.71283 0,40.41421"
         style="fill:none;stroke:#000000;stroke-width:1.06754518px;stroke-linecap:butt;stroke-linejoin:miter;stroke-opacity:1;marker-end:url(#Arrow1Mend)" />
      <path
         sodipodi:nodetypes="cc"
         inkscape:connector-curvature="0"
         id="path3065-1"
         d="m 788.53344,330.71283 0,40.41421"
         style="fill:none;stroke:#000000;stroke-width:1.06754518px;stroke-linecap:butt;stroke-linejoin:miter;stroke-opacity:1;marker-end:url(#Arrow1Mend)" />
      <path
         sodipodi:nodetypes="cc"
         inkscape:connector-curvature="0"
         id="path3065-5"
         d="m 852.94393,567.86034 0,70.41422"
         style="fill:none;stroke:#000000;stroke-width:1.06754518px;stroke-linecap:butt;stroke-linejoin:miter;stroke-opacity:1;marker-end:url(#Arrow1Mend)" />
      <path
         sodipodi:nodetypes="cccc"
         inkscape:connector-curvature="0"
         id="path3065-33-3"
         d="m 957.24755,534.66153 74.39955,0 0,-239.11821 -176.80714,0"
         style="fill:none;stroke:#000000;stroke-width:1.06754518px;stroke-linecap:butt;stroke-linejoin:miter;stroke-opacity:1;marker-end:url(#Arrow1Mend)" />
      <text
         sodipodi:linespacing="125%"
         id="text4700"
         y="398.21603"
         x="836.49377"
         style="font-size:38.43162537px;font-style:normal;font-variant:normal;font-weight:500;font-stretch:normal;line-height:125%;letter-spacing:0px;word-spacing:0px;fill:#000000;fill-opacity:1;stroke:none;font-family:URW Palladio L;-inkscape-font-specification:URW Palladio L Medium"
         xml:space="preserve"><tspan
           y="398.21603"
           x="836.49377"
           id="tspan4702"
           sodipodi:role="line"
           style="font-style:normal;font-variant:normal;font-weight:normal;font-stretch:normal;font-family:Palatino;-inkscape-font-specification:Palatino">……</tspan></text>
      <path
         sodipodi:nodetypes="cc"
         inkscape:connector-curvature="0"
         id="path3065-2-9"
         d="m 957.53259,331.25041 -253.28258,0"
         style="fill:none;stroke:#000000;stroke-width:1.06754518px;stroke-linecap:butt;stroke-linejoin:miter;stroke-opacity:1;marker-end:none" />
      <path
         sodipodi:nodetypes="cc"
         inkscape:connector-curvature="0"
         id="path3065-8"
         d="m 957.67742,417.72026 0,40.41421"
         style="fill:none;stroke:#000000;stroke-width:1.06754518px;stroke-linecap:butt;stroke-linejoin:miter;stroke-opacity:1;marker-end:none" />
      <path
         sodipodi:nodetypes="cc"
         inkscape:connector-curvature="0"
         id="path3065-0-9"
         d="m 704.25001,417.72026 0,40.41421"
         style="fill:none;stroke:#000000;stroke-width:1.06754518px;stroke-linecap:butt;stroke-linejoin:miter;stroke-opacity:1;marker-end:none" />
      <path
         sodipodi:nodetypes="cc"
         inkscape:connector-curvature="0"
         id="path3065-1-2"
         d="m 788.53331,417.72026 0,40.41421"
         style="fill:none;stroke:#000000;stroke-width:1.06754518px;stroke-linecap:butt;stroke-linejoin:miter;stroke-opacity:1;marker-end:none" />
      <path
         sodipodi:nodetypes="cc"
         inkscape:connector-curvature="0"
         id="path3065-2-9-2"
         d="m 957.53259,457.51538 -253.28258,0"
         style="fill:none;stroke:#000000;stroke-width:1.06754518px;stroke-linecap:butt;stroke-linejoin:miter;stroke-opacity:1;marker-end:none" />
      <path
         sodipodi:nodetypes="cc"
         inkscape:connector-curvature="0"
         id="path3065-5-5"
         d="m 851.65349,457.48381 0,40.41421"
         style="fill:none;stroke:#000000;stroke-width:1.06754518px;stroke-linecap:butt;stroke-linejoin:miter;stroke-opacity:1;marker-end:url(#Arrow1Mend)" />
      <text
         sodipodi:linespacing="125%"
         id="text5717"
         y="586.08209"
         x="858.49933"
         style="font-size:21.35090256px;font-style:normal;font-variant:normal;font-weight:500;font-stretch:normal;line-height:125%;letter-spacing:0px;word-spacing:0px;fill:#000000;fill-opacity:1;stroke:none;font-family:URW Palladio L;-inkscape-font-specification:URW Palladio L Medium"
         xml:space="preserve"><tspan
           y="586.08209"
           x="858.49933"
           id="tspan5719"
           sodipodi:role="line"
           style="font-style:normal;font-variant:normal;font-weight:normal;font-stretch:normal;font-family:Palatino;-inkscape-font-specification:Palatino">Yes</tspan></text>
      <text
         sodipodi:linespacing="125%"
         id="text5717-1"
         y="529.03174"
         x="959.77411"
         style="font-size:21.35090256px;font-style:normal;font-variant:normal;font-weight:500;font-stretch:normal;line-height:125%;letter-spacing:0px;word-spacing:0px;fill:#000000;fill-opacity:1;stroke:none;font-family:URW Palladio L;-inkscape-font-specification:URW Palladio L Medium"
         xml:space="preserve"><tspan
           y="529.03174"
           x="959.77411"
           id="tspan5719-4"
           sodipodi:role="line"
           style="font-style:normal;font-variant:normal;font-weight:normal;font-stretch:normal;font-family:Palatino;-inkscape-font-specification:Palatino">No</tspan></text>
      <path
         sodipodi:nodetypes="ccccc"
         inkscape:connector-curvature="0"
         id="rect4612"
         d="m 670.12677,375.67317 66.16167,0 0,42.03528 -66.16167,0 z"
         style="fill:#ffcccc;fill-opacity:1;stroke:#000000;stroke-width:1.06754518;stroke-linejoin:miter;stroke-miterlimit:4;stroke-opacity:1;stroke-dashoffset:0" />
      <text
         sodipodi:linespacing="125%"
         id="text2988-1"
         y="404.66431"
         x="678.3598"
         style="font-size:23.48599243px;font-style:normal;font-variant:normal;font-weight:500;font-stretch:normal;line-height:125%;letter-spacing:0px;word-spacing:0px;fill:#000000;fill-opacity:1;stroke:none;font-family:URW Palladio L;-inkscape-font-specification:URW Palladio L Medium"
         xml:space="preserve"><tspan
           y="404.66431"
           x="678.3598"
           id="tspan2990-3"
           sodipodi:role="line"
           style="font-style:normal;font-variant:normal;font-weight:normal;font-stretch:normal;font-family:Palatino;-inkscape-font-specification:Palatino">FEM</tspan></text>
      <text
         sodipodi:linespacing="125%"
         id="text4700-5"
         y="351.52158"
         x="835.57587"
         style="font-size:38.43162537px;font-style:normal;font-variant:normal;font-weight:500;font-stretch:normal;line-height:125%;letter-spacing:0px;word-spacing:0px;fill:#000000;fill-opacity:1;stroke:none;font-family:URW Palladio L;-inkscape-font-specification:URW Palladio L Medium"
         xml:space="preserve"><tspan
           y="351.52158"
           x="835.57587"
           id="tspan4702-3"
           sodipodi:role="line"
           style="font-style:normal;font-variant:normal;font-weight:normal;font-stretch:normal;font-family:Palatino;-inkscape-font-specification:Palatino">……</tspan></text>
      <text
         sodipodi:linespacing="125%"
         id="text4700-8"
         y="439.40985"
         x="833.68872"
         style="font-size:38.43162537px;font-style:normal;font-variant:normal;font-weight:500;font-stretch:normal;line-height:125%;letter-spacing:0px;word-spacing:0px;fill:#000000;fill-opacity:1;stroke:none;font-family:URW Palladio L;-inkscape-font-specification:URW Palladio L Medium"
         xml:space="preserve"><tspan
           y="439.40985"
           x="833.68872"
           id="tspan4702-1"
           sodipodi:role="line"
           style="font-style:normal;font-variant:normal;font-weight:normal;font-stretch:normal;font-family:Palatino;-inkscape-font-specification:Palatino">……</tspan></text>
      <path
         sodipodi:nodetypes="ccccc"
         inkscape:connector-curvature="0"
         id="rect4612-5"
         d="m 755.98565,375.67295 66.16167,0 0,42.03528 -66.16167,0 z"
         style="fill:#ffccff;fill-opacity:1;stroke:#000000;stroke-width:1.06754518;stroke-linejoin:miter;stroke-miterlimit:4;stroke-opacity:1;stroke-dashoffset:0" />
      <text
         sodipodi:linespacing="125%"
         id="text2988-1-3"
         y="404.66409"
         x="764.21869"
         style="font-size:23.48599243px;font-style:normal;font-variant:normal;font-weight:normal;font-stretch:normal;line-height:125%;letter-spacing:0px;word-spacing:0px;fill:#000000;fill-opacity:1;stroke:none;font-family:Palatino;-inkscape-font-specification:Palatino"
         xml:space="preserve"><tspan
           y="404.66409"
           x="764.21869"
           id="tspan2990-3-1"
           sodipodi:role="line">FEM</tspan></text>
      <path
         sodipodi:nodetypes="ccccc"
         inkscape:connector-curvature="0"
         id="rect4612-8"
         d="m 925.35286,375.67295 66.16164,0 0,42.03528 -66.16164,0 z"
         style="fill:#ffffcc;fill-opacity:1;stroke:#000000;stroke-width:1.06754518;stroke-linejoin:miter;stroke-miterlimit:4;stroke-opacity:1;stroke-dashoffset:0" />
      <text
         sodipodi:linespacing="125%"
         id="text2988-1-9"
         y="404.66409"
         x="933.58588"
         style="font-size:23.48599243px;font-style:normal;font-variant:normal;font-weight:500;font-stretch:normal;line-height:125%;letter-spacing:0px;word-spacing:0px;fill:#000000;fill-opacity:1;stroke:none;font-family:URW Palladio L;-inkscape-font-specification:URW Palladio L Medium"
         xml:space="preserve"><tspan
           y="404.66409"
           x="933.58588"
           id="tspan2990-3-8"
           sodipodi:role="line"
           style="font-style:normal;font-variant:normal;font-weight:normal;font-stretch:normal;font-family:Palatino;-inkscape-font-specification:Palatino">FEM</tspan></text>
      <text
         xml:space="preserve"
         style="font-size:40px;font-style:normal;font-weight:normal;line-height:125%;letter-spacing:0px;word-spacing:0px;fill:#000000;fill-opacity:1;stroke:none;font-family:Sans"
         x="682.01294"
         y="296.90161"
         id="text4325"
         sodipodi:linespacing="125%"><tspan
           sodipodi:role="line"
           id="tspan4327"
           x="682.01294"
           y="296.90161"
           style="font-style:normal;font-variant:normal;font-weight:normal;font-stretch:normal;font-family:Palatino;-inkscape-font-specification:Palatino">Global</tspan></text>
      <path
         sodipodi:nodetypes="ccccc"
         inkscape:connector-curvature="0"
         id="rect3024-8"
         d="m 850.71388,642.14471 104.467,33.0939 -104.467,33.0939 -104.4669,-33.0939 z"
         style="fill:#aaaaaa;fill-opacity:1;stroke:#000000;stroke-width:1.06754518;stroke-linejoin:miter;stroke-miterlimit:4;stroke-opacity:1;stroke-dashoffset:0" />
      <text
         sodipodi:linespacing="125%"
         id="text2988-77-9"
         y="681.92151"
         x="784.19031"
         style="font-size:21.35090256px;font-style:normal;font-variant:normal;font-weight:500;font-stretch:normal;line-height:125%;letter-spacing:0px;word-spacing:0px;fill:#000000;fill-opacity:1;stroke:none;font-family:URW Palladio L;-inkscape-font-specification:URW Palladio L Medium"
         xml:space="preserve"><tspan
           y="681.92151"
           x="784.19031"
           id="tspan2990-69-6"
           sodipodi:role="line"
           style="font-style:normal;font-variant:normal;font-weight:normal;font-stretch:normal;font-family:Palatino;-inkscape-font-specification:Palatino">Convergence?</tspan></text>
      <path
         sodipodi:nodetypes="cc"
         inkscape:connector-curvature="0"
         id="path3065-5-3"
         d="m 852.00428,708.38968 0,40.41422"
         style="fill:none;stroke:#000000;stroke-width:1.06754518px;stroke-linecap:butt;stroke-linejoin:miter;stroke-opacity:1;marker-end:url(#Arrow1Mend)" />
      <path
         sodipodi:nodetypes="cccc"
         inkscape:connector-curvature="0"
         id="path3065-33-3-7"
         d="m 956.30788,675.19087 206.39962,0 0,-447.11821 -308.80722,0"
         style="fill:none;stroke:#000000;stroke-width:1.06754518px;stroke-linecap:butt;stroke-linejoin:miter;stroke-opacity:1;marker-end:url(#Arrow1Mend)" />
      <text
         sodipodi:linespacing="125%"
         id="text5717-8"
         y="726.61145"
         x="857.55969"
         style="font-size:21.35090256px;font-style:normal;font-variant:normal;font-weight:500;font-stretch:normal;line-height:125%;letter-spacing:0px;word-spacing:0px;fill:#000000;fill-opacity:1;stroke:none;font-family:URW Palladio L;-inkscape-font-specification:URW Palladio L Medium"
         xml:space="preserve"><tspan
           y="726.61145"
           x="857.55969"
           id="tspan5719-3"
           sodipodi:role="line"
           style="font-style:normal;font-variant:normal;font-weight:normal;font-stretch:normal;font-family:Palatino;-inkscape-font-specification:Palatino">Yes</tspan></text>
      <text
         sodipodi:linespacing="125%"
         id="text5717-1-6"
         y="669.5611"
         x="958.83447"
         style="font-size:21.35090256px;font-style:normal;font-variant:normal;font-weight:500;font-stretch:normal;line-height:125%;letter-spacing:0px;word-spacing:0px;fill:#000000;fill-opacity:1;stroke:none;font-family:URW Palladio L;-inkscape-font-specification:URW Palladio L Medium"
         xml:space="preserve"><tspan
           y="669.5611"
           x="958.83447"
           id="tspan5719-4-0"
           sodipodi:role="line"
           style="font-style:normal;font-variant:normal;font-weight:normal;font-stretch:normal;font-family:Palatino;-inkscape-font-specification:Palatino">No</tspan></text>
      <g
         transform="translate(-32.571428,-31.714285)"
         id="g4406">
        <path
           style="fill:#ff3333;fill-opacity:1;stroke:#000000;stroke-width:1.06754518;stroke-linejoin:miter;stroke-miterlimit:4;stroke-opacity:1;stroke-dashoffset:0"
           d="m 1124.6464,425.88399 140.1617,0 0,62.03528 -140.1617,0 z"
           id="rect4612-3"
           inkscape:connector-curvature="0"
           sodipodi:nodetypes="ccccc" />
        <text
           sodipodi:linespacing="125%"
           id="text4325-5"
           y="471.14969"
           x="1146.9832"
           style="font-size:40px;font-style:normal;font-weight:normal;line-height:125%;letter-spacing:0px;word-spacing:0px;fill:#ffffff;fill-opacity:1;stroke:none;font-family:Sans"
           xml:space="preserve"><tspan
             style="font-style:normal;font-variant:normal;font-weight:normal;font-stretch:normal;fill:#ffffff;fill-opacity:1;font-family:Palatino;-inkscape-font-specification:Palatino"
             y="471.14969"
             x="1146.9832"
             id="tspan4327-1"
             sodipodi:role="line">Local</tspan></text>
      </g>
    </g>
    <text
       sodipodi:linespacing="125%"
       id="text4325-9"
       y="631.04767"
       x="461.17953"
       style="font-size:40px;font-style:normal;font-weight:normal;line-height:125%;letter-spacing:0px;word-spacing:0px;fill:#000000;fill-opacity:1;stroke:none;font-family:Sans"
       xml:space="preserve"><tspan
         style="font-style:normal;font-variant:normal;font-weight:normal;font-stretch:normal;font-family:Palatino;-inkscape-font-specification:Palatino"
         y="631.04767"
         x="461.17953"
         id="tspan4327-6"
         sodipodi:role="line">Local</tspan></text>
    <path
       style="fill:#ff3333;fill-opacity:1;stroke:#000000;stroke-width:5;stroke-linecap:butt;stroke-linejoin:miter;stroke-miterlimit:4;stroke-opacity:1;stroke-dasharray:none"
       d="m 413.13018,594.20453 c 0,0 -19.77609,-35.94611 -15.77303,-54.39558 2.24067,-10.32687 10.7835,-20.27539 20.65336,-24.0504 7.75422,-2.96582 17.55132,-0.98758 24.69399,3.24401 10.50061,6.22097 21.6229,29.5486 21.6229,29.5486 l 9.42224,23.17006 c 0,0 -15.74313,14.5257 -24.10414,21.55303 -8.36102,7.02733 -26.03781,20.55226 -26.03781,20.55226 z"
       id="path3779-7-7"
       inkscape:connector-curvature="0"
       sodipodi:nodetypes="caaaccscc" />
  </g>
</svg>
